Simulation
nRows=48
nColumns=15
endheader
time  TH_x TH_y TH_z SC_y  SC_z  SC_x  AC_y  AC_z  AC_x  GH_y  GH_z  GH_yy  EL_x  PS_y
0.0  0.000000  0.000000  0.000000  -30.600541002938147  -0.824980325127782  66.50474008105678  33.80116284752754  -44.14917251025442  -55.78210041947113  40.59808599595257  5.663054653849087  -11.664335383944547  23.09146920877457  0.000000
0.031  0.000000  0.000000  0.000000  -30.598953498135874  -0.6137598151799087  66.64658031852025  33.89732902617631  -43.864367355106346  -55.97073762458823  40.43805246532671  5.743624378463057  -11.710165693364297  22.995871792421337  0.000000
0.062  0.000000  0.000000  0.000000  -30.509669076207782  -0.5403348262580061  66.72286227849602  33.84808568981344  -43.539118678189396  -56.13575818600887  40.301374808494  5.725314791131603  -11.65889501027989  22.791991823505118  0.000000
0.093  0.000000  0.000000  0.000000  -30.379042795770875  -0.5615593927683844  66.76659480698595  33.69446821967992  -43.187534122472066  -56.28546216291306  40.19179990548163  5.64600056575322  -11.531479489731302  22.6314511920013  0.000000
0.124  0.000000  0.000000  0.000000  -30.247131323652066  -0.6510486209257564  66.7914119404598  33.48460439471511  -42.87009093354923  -56.417547045667696  40.08461757992829  5.590873120030864  -11.37804325545688  22.53049148392648  0.000000
0.155  0.000000  0.000000  0.000000  -30.14650938313448  -0.7880498065494884  66.79825386679406  33.299725441787956  -42.68164157481702  -56.541977762499506  39.94536215456897  5.681453018638853  -11.249912444761613  22.463234664251697  0.000000
0.186  0.000000  0.000000  0.000000  -30.11058612998277  -0.9133964211419022  66.78896714791242  33.1767592764358  -42.672787738181135  -56.65574894632081  39.74318599429731  5.988026150417147  -11.185829806474128  22.398730849960433  0.000000
0.217  0.000000  0.000000  0.000000  -30.16536813553422  -0.990365105449749  66.77380814426647  33.08512478774398  -42.76806090383597  -56.73342138036283  39.46809230658578  6.4809680201133855  -11.185467030735163  22.278532800184554  0.000000
0.248  0.000000  0.000000  0.000000  -30.28678751940279  -1.053171228062896  66.76082421536587  33.015779896108285  -42.87088873677295  -56.77689952120925  39.10407226319187  7.113172020316156  -11.250126994437379  22.095829601021617  0.000000
0.279  0.000000  0.000000  0.000000  -30.425912985935252  -1.1157879553939316  66.7532178160304  32.97985450473633  -42.958932645490755  -56.796809622087245  38.65682028671192  7.861377456632081  -11.365729573638722  21.878332607089003  0.000000
0.31  0.000000  0.000000  0.000000  -30.55632751950272  -1.1642121699285994  66.7520902716452  32.97628387016086  -43.02814878153338  -56.794502297796754  38.140049817676335  8.697720470479721  -11.5128159052594  21.66836745907351  0.000000
0.34099999999999997  0.000000  0.000000  0.000000  -30.674470439378908  -1.1956725921317792  66.75988218696916  33.00811989506235  -43.08308096966818  -56.76416225106321  37.563184888769584  9.602794102169925  -11.675706161810679  21.48968231344999  0.000000
0.372  0.000000  0.000000  0.000000  -30.78459771335908  -1.217763596147223  66.78174492885474  33.075466782529276  -43.13447967692767  -56.69502706230936  36.91845616404086  10.563738618364962  -11.854079363266134  21.352387142212507  0.000000
0.403  0.000000  0.000000  0.000000  -30.898151001254785  -1.2407379845429396  66.82800179819402  33.17865165194184  -43.204494212415156  -56.57687092733353  36.188260334231025  11.577208665493044  -12.054350837291771  21.25943429914384  0.000000
0.434  0.000000  0.000000  0.000000  -31.01888662693875  -1.2697516441890337  66.90862170481331  33.31839270190353  -43.309566430346806  -56.40898552172573  35.35634994568015  12.640807270454475  -12.277155384493696  21.22248625871395  0.000000
0.46499999999999997  0.000000  0.000000  0.000000  -31.139114303157697  -1.30061383049103  67.0284754818781  33.49623513286258  -43.451451440631836  -56.20068245666564  34.4266341240529  13.751623946703505  -12.503756994421408  21.24987818224646  0.000000
0.496  0.000000  0.000000  0.000000  -31.242753695496848  -1.3224588309776915  67.18257641923121  33.710581539016125  -43.61488651259937  -55.965606462515524  33.42461949679139  14.908818534339202  -12.703018555909338  21.33516746647114  0.000000
0.527  0.000000  0.000000  0.000000  -31.316169817880578  -1.323946536948163  67.36131547750183  33.95207048714849  -43.7733852634309  -55.71297437001691  32.39023313051907  16.11141608549701  -12.846117235594482  21.449566380380876  0.000000
0.558  0.000000  0.000000  0.000000  -31.35420859044564  -1.29763448777062  67.55486349482825  34.21154254991079  -43.90824681757131  -55.44824976654353  31.363298929303028  17.363680493926356  -12.925025620664888  21.559905764860765  0.000000
0.589  0.000000  0.000000  0.000000  -31.363495650130606  -1.2390121138753685  67.75769360059037  34.48386773351717  -44.01085484815261  -55.172672432401775  30.379255393437163  18.66967425343563  -12.95264009135228  21.645995591758993  0.000000
0.62  0.000000  0.000000  0.000000  -31.358329742333414  -1.146290995620493  67.96842752493106  34.7666717570297  -44.08097089706531  -54.88385624838173  29.464467623350725  20.031494336694553  -12.958258606556925  21.701317990215546  0.000000
0.651  0.000000  0.000000  0.000000  -31.352299813482606  -1.0210168584760997  68.18869556278001  35.06066834191722  -44.12466108188379  -54.57785446921578  28.63428907474189  21.450422107548434  -12.975477609215595  21.724075674530333  0.000000
0.6819999999999999  0.000000  0.000000  0.000000  -31.349229481726965  -0.8687031665672427  68.4203709802104  35.36724933847516  -44.148572961538115  -54.253072106389745  27.887660177243617  22.927348403607382  -13.028641930611597  21.714700795766724  0.000000
0.713  0.000000  0.000000  0.000000  -31.341792220473987  -0.6981978543928609  68.66422284988268  35.68853962981211  -44.155613238549414  -53.91267119233969  27.208408834652825  24.461865633504416  -13.122371678244017  21.677634138731573  0.000000
0.744  0.000000  0.000000  0.000000  -31.31757835408083  -0.5190116447411864  68.91943963290164  36.02700640159087  -44.14440684760925  -53.562930545874195  26.573749935654703  26.05053389509012  -13.243253418170978  21.622242029439022  0.000000
0.775  0.000000  0.000000  0.000000  -31.269069312036834  -0.3387436745246165  69.18571292865904  36.38599425412702  -44.112650114192654  -53.207998015240385  25.96725259093859  27.68382932150207  -13.373422793932223  21.557154122704972  0.000000
0.806  0.000000  0.000000  0.000000  -31.19864472984706  -0.16148383812407746  69.46591455280162  36.76981771123715  -44.06154210443119  -52.846740439661936  25.387069705157394  29.344177047871842  -13.50586671109766  21.48449386911874  0.000000
0.837  0.000000  0.000000  0.000000  -31.11644048837174  0.01178617481674412  69.76635864705243  37.18325816596895  -43.995564970426  -52.47413420229762  24.84470082805025  31.006752347428556  -13.648016421103646  21.399214826889423  0.000000
0.868  0.000000  0.000000  0.000000  -31.03339628022792  0.18126076358029286  70.0939233133465  37.6289181911474  -43.91964189671766  -52.08609416516873  24.355112922626976  32.64468395033848  -13.814452925536264  21.293565397826377  0.000000
0.899  0.000000  0.000000  0.000000  -30.956171351071653  0.3467810897757398  70.45213469069964  38.10513692338862  -43.8360597225544  -51.68323592901115  23.927497747755847  34.23558432808141  -14.016534220421303  21.161583807523858  0.000000
0.9299999999999999  0.000000  0.000000  0.000000  -30.886106827696235  0.5076512326427424  70.8393727670765  38.60521770763888  -43.74394502209651  -51.27148154681822  23.562162067562856  35.76554262497028  -14.25870827542865  21.000710169462025  0.000000
0.961  0.000000  0.000000  0.000000  -30.82260850561645  0.6636941643019151  71.25054894250016  39.119035399626725  -43.638866209077364  -50.86004017415878  23.255673066985043  37.22764544651425  -14.54218044713376  20.810944612264727  0.000000
0.992  0.000000  0.000000  0.000000  -30.767174051331207  0.8168259076680797  71.67995618160369  39.635821391292595  -43.51361706857966  -50.45907275364813  23.008983693741943  38.61903458298316  -14.872704671994596  20.593751541709572  0.000000
1.023  0.000000  0.000000  0.000000  -30.725657842675737  0.9717478149434459  72.12364904829326  40.14575090127296  -43.358673151871905  -50.07702335186465  22.830699192006062  39.9382795394885  -15.263202526142187  20.351771241812326  0.000000
1.054  0.000000  0.000000  0.000000  -30.706589729444406  1.1356631053314183  72.58038407467944  40.641406351963006  -43.16639272926284  -49.7178974505095  22.730835812998237  41.186422388899636  -15.728085491640952  20.088803161290464  0.000000
1.085  0.000000  0.000000  0.000000  -30.716580076412132  1.3159012500537879  73.05232156921572  41.118950232122735  -42.934992483174305  -49.378941373662634  22.70729218343427  42.36850180144172  -16.267647315657157  19.810742252009145  0.000000
1.116  0.000000  0.000000  0.000000  -30.757110906915134  1.5168609871554002  73.54549646816255  41.579868661643275  -42.671700474771576  -49.05058719353137  22.7358114146284  43.4944099649051  -16.85463854761666  19.52701306465628  0.000000
1.147  0.000000  0.000000  0.000000  -30.826418470372747  1.739130519078042  74.06802846881153  42.03021371522805  -42.39111802695823  -48.718705679032404  22.774015921246008  44.57719431138731  -17.436767313382717  19.25101040304671  0.000000
1.178  0.000000  0.000000  0.000000  -30.923736491632464  1.9806517813260702  74.62679911420366  42.47669617569972  -42.10915454844132  -48.369778544070364  22.778980039382567  45.62904536654097  -17.957752791477574  18.997471128277827  0.000000
1.209  0.000000  0.000000  0.000000  -31.0528346817647  2.23944698425195  75.22321099357428  42.921232113390275  -41.83562552393899  -47.995898101189  22.726857441018115  46.6577186908393  -18.381577049200313  18.777853490676996  0.000000
1.24  0.000000  0.000000  0.000000  -31.223017832549086  2.515948762883402  75.85123243460777  43.35790587557964  -41.57111699275033  -47.59683422217375  22.621781554010436  47.66534751953793  -18.703934425871815  18.59753140435487  0.000000
1.271  0.000000  0.000000  0.000000  -31.445977750658834  2.8139760824355675  76.49912135850857  43.774566641462634  -41.30934196453661  -47.177843840715234  22.487756554593403  48.64922998882449  -18.942888820615483  18.456228354863644  0.000000
1.302  0.000000  0.000000  0.000000  -31.72554630308548  3.1351006305706015  77.15416045608256  44.15958872477981  -41.04156186845249  -46.747795872749045  22.34820841370082  49.604842290650474  -19.122891653131386  18.34817004695929  0.000000
1.333  0.000000  0.000000  0.000000  -32.05160165577223  3.475056430895769  77.80684489609422  44.50684031605972  -40.75972395378024  -46.316347432751606  22.210597114550083  50.52744545235444  -19.262658653477665  18.26415658245027  0.000000
1.3639999999999999  0.000000  0.000000  0.000000  -32.40585005828996  3.828979949210223  78.45171413673218  44.816146616193016  -40.460577666752016  -45.88918464583876  22.068268706897094  51.411617497055396  -19.375156226005227  18.19522377811352  0.000000
1.395  0.000000  0.000000  0.000000  -32.77296241652326  4.190642729504894  79.08330553838496  45.09272634085417  -40.143613211246446  -45.464638680833254  21.91464265147949  52.252728111408544  -19.473956122642942  18.13557925874193  0.000000
1.426  0.000000  0.000000  0.000000  -33.14627003986245  4.5555069937775645  79.69215624407856  45.34359393715197  -39.80595844474329  -45.0356323294117  21.75491816059532  53.04365942459278  -19.5797425814512  18.085111384065417  0.000000
1.457  0.000000  0.000000  0.000000  -33.529681050940276  4.924568697834125  80.27107376480865  45.573529130341726  -39.447180661039106  -44.59332481090112  21.606160528688985  53.769820823303895  -19.714769508286032  18.045497836027383  0.000000
